<?xml version="1.0" encoding="UTF-8"?>
<svg width="45px" height="32px" viewBox="0 0 45 32" version="1.1" xmlns="http://www.w3.org/2000/svg" xmlns:xlink="http://www.w3.org/1999/xlink">
    <!-- Generator: Sketch 49.3 (51167) - http://www.bohemiancoding.com/sketch -->
    <title>Youtube</title>
    <desc>Created with Sketch.</desc>
    <defs></defs>
    <g id="Page-1" stroke="none" stroke-width="1" fill="none" fill-rule="evenodd">
        <g id="kharkiv_js_1280" transform="translate(-720.000000, -8873.000000)" fill="#FF0002" fill-rule="nonzero">
            <g id="previously" transform="translate(720.000000, 7987.000000)">
                <g id="subscribe" transform="translate(0.000000, 886.000000)">
                    <path d="M18.0013879,22 L18,9 L30,15.5224114 L18.0013879,22 Z M44.55,6.90274165 C44.55,6.90274165 44.1098438,3.76771671 42.76125,2.387168 C41.0498437,0.574399059 39.1317187,0.565868235 38.2528125,0.460656941 C31.955625,0 22.5098438,0 22.5098438,0 L22.4901562,0 C22.4901562,0 13.044375,0 6.7471875,0.460656941 C5.866875,0.565868235 3.95015625,0.574399059 2.23734375,2.387168 C0.88875,3.76771671 0.45,6.90274165 0.45,6.90274165 C0.45,6.90274165 0,10.5851511 0,14.2661393 L0,17.7182212 C0,21.4006306 0.45,25.0816188 0.45,25.0816188 C0.45,25.0816188 0.88875,28.2166438 2.23734375,29.5971915 C3.95015625,31.4099614 6.19875,31.3530899 7.2,31.5421873 C10.8,31.8919445 22.5,32 22.5,32 C22.5,32 31.955625,31.9857826 38.2528125,31.5251256 C39.1317187,31.4184922 41.0498437,31.4099614 42.76125,29.5971915 C44.1098438,28.2166438 44.55,25.0816188 44.55,25.0816188 C44.55,25.0816188 45,21.4006306 45,17.7182212 L45,14.2661393 C45,10.5851511 44.55,6.90274165 44.55,6.90274165 Z" id="Youtube"></path>
                </g>
            </g>
        </g>
    </g>
</svg>