<?xml version="1.0" encoding="UTF-8"?>
<svg width="22px" height="17px" viewBox="0 0 22 17" version="1.1" xmlns="http://www.w3.org/2000/svg" xmlns:xlink="http://www.w3.org/1999/xlink">
    <!-- Generator: Sketch 48.2 (47327) - http://www.bohemiancoding.com/sketch -->
    <title>Combined Shape</title>
    <desc>Created with Sketch.</desc>
    <defs></defs>
    <g id="kharkiv_js_320" stroke="none" stroke-width="1" fill="none" fill-rule="evenodd" transform="translate(-24.000000, -485.000000)">
        <path d="M25.5,485 L44.5,485 C45.3284271,485 46,485.671573 46,486.5 C46,487.328427 45.3284271,488 44.5,488 L25.5,488 C24.6715729,488 24,487.328427 24,486.5 C24,485.671573 24.6715729,485 25.5,485 Z M25.5,492 L44.5,492 C45.3284271,492 46,492.671573 46,493.5 C46,494.328427 45.3284271,495 44.5,495 L25.5,495 C24.6715729,495 24,494.328427 24,493.5 C24,492.671573 24.6715729,492 25.5,492 Z M25.5,499 L44.5,499 C45.3284271,499 46,499.671573 46,500.5 C46,501.328427 45.3284271,502 44.5,502 L25.5,502 C24.6715729,502 24,501.328427 24,500.5 C24,499.671573 24.6715729,499 25.5,499 Z" id="Combined-Shape" fill="#000000"></path>
    </g>
</svg>