<?xml version="1.0" encoding="UTF-8"?>
<svg width="48px" height="34px" viewBox="0 0 48 34" version="1.1" xmlns="http://www.w3.org/2000/svg" xmlns:xlink="http://www.w3.org/1999/xlink">
    <!-- Generator: Sketch 49.3 (51167) - http://www.bohemiancoding.com/sketch -->
    <title>Youtube</title>
    <desc>Created with Sketch.</desc>
    <defs></defs>
    <g id="Page-1" stroke="none" stroke-width="1" fill="none" fill-rule="evenodd">
        <g id="kharkiv_js_320_menu" transform="translate(-203.000000, -339.000000)" fill="#FFFFFF" fill-rule="nonzero">
            <g id="social_nav" transform="translate(27.000000, 332.000000)">
                <g id="Youtube-color" transform="translate(176.000000, 0.000000)">
                    <path d="M19.0015036,31 L19,17 L32,24.0241353 L19.0015036,31 Z M47.52,14.334163 C47.52,14.334163 47.0505,11.003199 45.612,9.536366 C43.7865,7.610299 41.7405,7.601235 40.803,7.489448 C34.086,7 24.0105,7 24.0105,7 L23.9895,7 C23.9895,7 13.914,7 7.197,7.489448 C6.258,7.601235 4.2135,7.610299 2.3865,9.536366 C0.948,11.003199 0.48,14.334163 0.48,14.334163 C0.48,14.334163 0,18.246723 0,22.157773 L0,25.82561 C0,29.73817 0.48,33.64922 0.48,33.64922 C0.48,33.64922 0.948,36.980184 2.3865,38.447016 C4.2135,40.373084 6.612,40.312658 7.68,40.513574 C11.52,40.885191 24,41 24,41 C24,41 34.086,40.984894 40.803,40.495446 C41.7405,40.382148 43.7865,40.373084 45.612,38.447016 C47.0505,36.980184 47.52,33.64922 47.52,33.64922 C47.52,33.64922 48,29.73817 48,25.82561 L48,22.157773 C48,18.246723 47.52,14.334163 47.52,14.334163 Z" id="Youtube"></path>
                </g>
            </g>
        </g>
    </g>
</svg>